<svg width="177" height="179" viewBox="0 0 177 179" fill="none" xmlns="http://www.w3.org/2000/svg">
<ellipse cx="87.8916" cy="89.5" rx="79.5" ry="83.5" fill="#D9D9D9"/>
<path d="M92.5771 176.317C73.563 176.321 55.0483 170.221 39.7494 158.911C24.4505 147.602 13.1729 131.679 7.57135 113.479C1.9698 95.2788 2.3392 75.7594 8.62529 57.7849C14.9114 39.8103 26.7832 24.3269 42.499 13.6064C32.3821 19.8104 23.6065 27.9788 16.6888 37.631C9.77108 47.2832 4.85097 58.224 2.21816 69.8095C-0.414637 81.395 -0.706945 93.391 1.35842 105.091C3.42379 116.792 7.80508 127.96 14.2444 137.939C20.6838 147.917 29.0511 156.505 38.8538 163.196C48.6564 169.887 59.6964 174.546 71.3237 176.899C82.9511 179.252 94.9309 179.251 106.558 176.897C118.185 174.542 129.224 169.882 139.026 163.19C125.057 171.792 108.975 176.337 92.5771 176.317Z" fill="#443626"/>
<path d="M80.6153 2.30544C100.051 2.3023 118.977 8.51491 134.615 20.0319C150.254 31.5489 161.783 47.764 167.51 66.2986C173.237 84.8332 172.862 104.712 166.439 123.018C160.016 141.324 147.884 157.094 131.821 168.015C142.139 161.684 151.084 153.359 158.133 143.529C165.181 133.7 170.19 122.564 172.867 110.776C175.543 98.9881 175.831 86.7852 173.716 74.8842C171.601 62.9831 167.124 51.6237 160.549 41.4732C153.973 31.3226 145.432 22.5856 135.425 15.775C125.419 8.96443 114.151 4.21764 102.281 1.81345C90.4108 -0.590736 78.1793 -0.603892 66.3042 1.77476C54.4292 4.15341 43.1501 8.87592 33.1294 15.665C47.4126 6.90861 63.8523 2.28353 80.6153 2.30544Z" fill="#726239"/>
<path d="M40.3092 96L42.0792 87.15H38.5992L38.9292 85.5H47.8242L47.4942 87.15H44.0142L42.2592 96H40.3092ZM51.8122 96.15C50.8222 96.15 49.9972 95.955 49.3372 95.565C48.6772 95.175 48.2122 94.63 47.9422 93.93C47.6822 93.22 47.6472 92.385 47.8372 91.425L49.0222 85.5H50.9722L49.7872 91.395C49.6972 91.905 49.6722 92.355 49.7122 92.745C49.7622 93.125 49.8822 93.445 50.0722 93.705C50.2722 93.955 50.5322 94.14 50.8522 94.26C51.1822 94.38 51.5672 94.44 52.0072 94.44C52.5672 94.44 53.0472 94.335 53.4472 94.125C53.8572 93.915 54.1972 93.585 54.4672 93.135C54.7472 92.675 54.9622 92.09 55.1122 91.38L56.2822 85.5H58.2022L57.0022 91.515C56.6922 93.055 56.1022 94.215 55.2322 94.995C54.3622 95.765 53.2222 96.15 51.8122 96.15ZM58.8481 96L60.9481 85.5H65.0281C66.2981 85.5 67.2781 85.78 67.9681 86.34C68.6681 86.89 69.0181 87.665 69.0181 88.665C69.0181 89.545 68.8131 90.305 68.4031 90.945C68.0031 91.575 67.4281 92.065 66.6781 92.415C65.9281 92.755 65.0381 92.925 64.0081 92.925H60.5881L61.5931 92.04L60.8131 96H58.8481ZM65.7481 96L63.6031 92.19H65.6731L67.8181 96H65.7481ZM61.5481 92.265L60.8881 91.32H64.0681C65.0181 91.32 65.7531 91.11 66.2731 90.69C66.7931 90.27 67.0531 89.655 67.0531 88.845C67.0531 88.275 66.8581 87.85 66.4681 87.57C66.0881 87.29 65.5381 87.15 64.8181 87.15H61.7581L62.7781 86.175L61.5481 92.265ZM71.8033 96L73.5733 87.15H70.0933L70.4233 85.5H79.3183L78.9883 87.15H75.5083L73.7533 96H71.8033ZM78.6967 96L80.7967 85.5H82.7467L80.9767 94.35H86.4667L86.1367 96H78.6967ZM90.6912 89.865H95.9262L95.6112 91.47H90.3762L90.6912 89.865ZM89.9412 94.365H95.8812L95.5512 96H87.6762L89.7762 85.5H97.4412L97.1112 87.135H91.3812L89.9412 94.365ZM103.05 96.15C102 96.15 101.095 95.96 100.335 95.58C99.5751 95.2 98.9851 94.675 98.5651 94.005C98.1551 93.325 97.9501 92.545 97.9501 91.665C97.9501 90.775 98.1001 89.95 98.4001 89.19C98.7101 88.42 99.1501 87.75 99.7201 87.18C100.29 86.61 100.975 86.165 101.775 85.845C102.585 85.515 103.485 85.35 104.475 85.35C105.435 85.35 106.27 85.5 106.98 85.8C107.69 86.1 108.26 86.525 108.69 87.075L107.28 88.245C106.93 87.825 106.515 87.525 106.035 87.345C105.565 87.155 105.015 87.06 104.385 87.06C103.705 87.06 103.09 87.175 102.54 87.405C101.99 87.625 101.52 87.94 101.13 88.35C100.74 88.76 100.44 89.24 100.23 89.79C100.02 90.33 99.9151 90.915 99.9151 91.545C99.9151 92.115 100.04 92.62 100.29 93.06C100.54 93.5 100.915 93.84 101.415 94.08C101.915 94.32 102.535 94.44 103.275 94.44C103.825 94.44 104.34 94.35 104.82 94.17C105.31 93.98 105.77 93.7 106.2 93.33L106.965 94.86C106.445 95.27 105.84 95.59 105.15 95.82C104.47 96.04 103.77 96.15 103.05 96.15ZM105.195 94.56L105.975 90.63H107.82L106.965 94.86L105.195 94.56ZM114.562 96.15C113.502 96.15 112.597 95.96 111.847 95.58C111.097 95.2 110.522 94.675 110.122 94.005C109.732 93.325 109.537 92.545 109.537 91.665C109.537 90.775 109.687 89.95 109.987 89.19C110.287 88.42 110.722 87.75 111.292 87.18C111.862 86.61 112.542 86.165 113.332 85.845C114.122 85.515 115.002 85.35 115.972 85.35C117.022 85.35 117.922 85.54 118.672 85.92C119.422 86.3 119.997 86.83 120.397 87.51C120.797 88.18 120.997 88.955 120.997 89.835C120.997 90.725 120.842 91.555 120.532 92.325C120.232 93.085 119.797 93.75 119.227 94.32C118.657 94.89 117.977 95.34 117.187 95.67C116.407 95.99 115.532 96.15 114.562 96.15ZM114.727 94.44C115.387 94.44 115.982 94.325 116.512 94.095C117.042 93.855 117.492 93.53 117.862 93.12C118.242 92.7 118.532 92.22 118.732 91.68C118.932 91.13 119.032 90.555 119.032 89.955C119.032 89.385 118.907 88.88 118.657 88.44C118.407 88 118.042 87.66 117.562 87.42C117.082 87.18 116.492 87.06 115.792 87.06C115.142 87.06 114.547 87.18 114.007 87.42C113.477 87.65 113.022 87.975 112.642 88.395C112.272 88.805 111.987 89.285 111.787 89.835C111.597 90.375 111.502 90.945 111.502 91.545C111.502 92.115 111.622 92.62 111.862 93.06C112.112 93.5 112.477 93.84 112.957 94.08C113.437 94.32 114.027 94.44 114.727 94.44ZM121.939 96L124.039 85.5H128.284C129.354 85.5 130.269 85.68 131.029 86.04C131.789 86.39 132.369 86.89 132.769 87.54C133.179 88.19 133.384 88.955 133.384 89.835C133.384 90.765 133.224 91.61 132.904 92.37C132.594 93.13 132.149 93.78 131.569 94.32C130.999 94.85 130.314 95.265 129.514 95.565C128.714 95.855 127.824 96 126.844 96H121.939ZM124.219 94.35H126.904C127.844 94.35 128.649 94.16 129.319 93.78C129.999 93.39 130.519 92.865 130.879 92.205C131.239 91.545 131.419 90.795 131.419 89.955C131.419 89.385 131.294 88.89 131.044 88.47C130.794 88.05 130.419 87.725 129.919 87.495C129.429 87.265 128.814 87.15 128.074 87.15H125.659L124.219 94.35ZM135.115 96L137.05 86.325L137.74 87.135H134.65L134.98 85.5H139.165L137.065 96H135.115Z" fill="#443626"/>
</svg>
