<svg width="136" height="21" viewBox="0 0 136 21" fill="none" xmlns="http://www.w3.org/2000/svg">
<path d="M27.9309 2.82575C26.9028 3.23851 25.7947 3.50975 24.6465 3.63947C25.8214 3.01444 26.7293 2.02383 27.1565 0.832733C26.0484 1.42238 24.82 1.83514 23.525 2.071C22.4702 1.0568 20.9882 0.467149 19.306 0.467149C16.1684 0.467149 13.605 2.73141 13.605 5.52636C13.605 5.92732 13.6584 6.31649 13.7518 6.68207C8.9988 6.4698 4.76644 4.45319 1.94933 1.3988C1.45533 2.14176 1.17496 3.01444 1.17496 3.9343C1.17496 5.69146 2.1763 7.24814 3.72505 8.13262C2.77711 8.13262 1.89592 7.89676 1.12155 7.54296V7.57834C1.12155 10.0313 3.09754 12.0833 5.71438 12.5432C4.87423 12.7463 3.9922 12.7746 3.13759 12.6258C3.50022 13.6311 4.21041 14.5108 5.16834 15.1411C6.12627 15.7715 7.28376 16.1208 8.4781 16.1401C6.45355 17.5558 3.944 18.321 1.36187 18.31C0.907931 18.31 0.453988 18.2864 4.5301e-05 18.2392C2.53678 19.678 5.55417 20.5153 8.78517 20.5153C19.306 20.5153 25.0871 12.8027 25.0871 6.11601C25.0871 5.89194 25.0871 5.67967 25.0737 5.4556C26.1952 4.74802 27.1565 3.85175 27.9309 2.82575Z" fill="#443626"/>
<path d="M43.805 4.365C45.085 4.365 46.185 4.595 47.105 5.055C48.025 5.505 48.725 6.145 49.205 6.975C49.695 7.805 49.94 8.765 49.94 9.855C49.94 10.775 49.785 11.635 49.475 12.435C49.175 13.235 48.755 13.88 48.215 14.37C47.675 14.85 47.07 15.09 46.4 15.09C45.92 15.09 45.52 15 45.2 14.82C44.89 14.64 44.68 14.385 44.57 14.055C43.9 14.745 43.005 15.09 41.885 15.09C41.275 15.09 40.725 14.96 40.235 14.7C39.755 14.44 39.375 14.07 39.095 13.59C38.825 13.1 38.69 12.535 38.69 11.895C38.69 11.085 38.865 10.345 39.215 9.675C39.575 8.995 40.07 8.46 40.7 8.07C41.33 7.67 42.04 7.47 42.83 7.47C44.02 7.47 44.86 7.885 45.35 8.715L45.575 7.56H47.255L46.22 12.69C46.19 12.82 46.175 12.935 46.175 13.035C46.175 13.465 46.4 13.68 46.85 13.68C47.22 13.68 47.545 13.495 47.825 13.125C48.105 12.745 48.32 12.265 48.47 11.685C48.62 11.095 48.695 10.51 48.695 9.93C48.695 8.58 48.26 7.52 47.39 6.75C46.53 5.98 45.275 5.595 43.625 5.595C42.305 5.595 41.135 5.89 40.115 6.48C39.105 7.06 38.32 7.855 37.76 8.865C37.21 9.875 36.935 11 36.935 12.24C36.935 13.15 37.12 13.95 37.49 14.64C37.87 15.33 38.425 15.865 39.155 16.245C39.885 16.625 40.765 16.815 41.795 16.815C42.875 16.815 43.835 16.62 44.675 16.23L44.945 17.415C44.495 17.615 43.98 17.77 43.4 17.88C42.83 18 42.265 18.06 41.705 18.06C40.445 18.06 39.35 17.82 38.42 17.34C37.49 16.86 36.78 16.19 36.29 15.33C35.8 14.47 35.555 13.475 35.555 12.345C35.555 10.845 35.9 9.49 36.59 8.28C37.28 7.06 38.25 6.105 39.5 5.415C40.76 4.715 42.195 4.365 43.805 4.365ZM42.32 13.635C42.82 13.635 43.27 13.51 43.67 13.26C44.07 13.01 44.38 12.67 44.6 12.24C44.82 11.8 44.93 11.315 44.93 10.785C44.93 10.195 44.755 9.74 44.405 9.42C44.055 9.09 43.57 8.925 42.95 8.925C42.46 8.925 42.02 9.045 41.63 9.285C41.25 9.515 40.95 9.845 40.73 10.275C40.51 10.705 40.4 11.2 40.4 11.76C40.4 12.36 40.565 12.825 40.895 13.155C41.235 13.475 41.71 13.635 42.32 13.635ZM60.3677 6.99L58.7777 15H56.9927L57.1577 14.175C56.4577 14.795 55.5877 15.105 54.5477 15.105C53.8877 15.105 53.2877 14.965 52.7477 14.685C52.2177 14.405 51.7977 14 51.4877 13.47C51.1777 12.93 51.0227 12.3 51.0227 11.58C51.0227 10.69 51.2177 9.89 51.6077 9.18C52.0077 8.46 52.5477 7.9 53.2277 7.5C53.9177 7.1 54.6877 6.9 55.5377 6.9C56.8177 6.9 57.7277 7.325 58.2677 8.175L58.4927 6.99H60.3677ZM55.0277 13.5C55.5577 13.5 56.0277 13.375 56.4377 13.125C56.8577 12.865 57.1877 12.51 57.4277 12.06C57.6677 11.6 57.7877 11.08 57.7877 10.5C57.7877 9.87 57.6027 9.38 57.2327 9.03C56.8627 8.67 56.3427 8.49 55.6727 8.49C55.1427 8.49 54.6677 8.62 54.2477 8.88C53.8377 9.13 53.5127 9.485 53.2727 9.945C53.0327 10.395 52.9127 10.91 52.9127 11.49C52.9127 12.12 53.0977 12.615 53.4677 12.975C53.8377 13.325 54.3577 13.5 55.0277 13.5ZM63.9609 15.105C63.2809 15.105 62.6309 15.025 62.0109 14.865C61.4009 14.695 60.9259 14.485 60.5859 14.235L61.3659 12.795C61.6959 13.035 62.1109 13.225 62.6109 13.365C63.1109 13.505 63.6259 13.575 64.1559 13.575C64.7559 13.575 65.2059 13.495 65.5059 13.335C65.8159 13.165 65.9709 12.925 65.9709 12.615C65.9709 12.375 65.8409 12.2 65.5809 12.09C65.3309 11.98 64.9309 11.865 64.3809 11.745C63.8109 11.635 63.3409 11.52 62.9709 11.4C62.6109 11.27 62.2959 11.065 62.0259 10.785C61.7659 10.495 61.6359 10.1 61.6359 9.6C61.6359 8.77 61.9809 8.115 62.6709 7.635C63.3709 7.145 64.2959 6.9 65.4459 6.9C65.9959 6.9 66.5309 6.965 67.0509 7.095C67.5709 7.215 67.9959 7.38 68.3259 7.59L67.6359 9.03C67.3059 8.82 66.9309 8.665 66.5109 8.565C66.1009 8.465 65.6859 8.415 65.2659 8.415C64.6759 8.415 64.2259 8.505 63.9159 8.685C63.6159 8.865 63.4659 9.1 63.4659 9.39C63.4659 9.65 63.5959 9.84 63.8559 9.96C64.1259 10.07 64.5409 10.185 65.1009 10.305C65.6609 10.415 66.1209 10.535 66.4809 10.665C66.8409 10.785 67.1509 10.985 67.4109 11.265C67.6709 11.545 67.8009 11.925 67.8009 12.405C67.8009 13.265 67.4509 13.93 66.7509 14.4C66.0509 14.87 65.1209 15.105 63.9609 15.105ZM79.0006 3.87L76.7806 15H74.9956L75.1606 14.175C74.4406 14.795 73.5756 15.105 72.5656 15.105C71.9056 15.105 71.3056 14.965 70.7656 14.685C70.2356 14.405 69.8156 14 69.5056 13.47C69.1956 12.93 69.0406 12.3 69.0406 11.58C69.0406 10.68 69.2356 9.875 69.6256 9.165C70.0156 8.455 70.5506 7.9 71.2306 7.5C71.9206 7.1 72.6906 6.9 73.5406 6.9C74.1706 6.9 74.7156 7.005 75.1756 7.215C75.6456 7.425 76.0106 7.735 76.2706 8.145L77.1256 3.87H79.0006ZM73.0456 13.5C73.5656 13.5 74.0356 13.375 74.4556 13.125C74.8756 12.865 75.2006 12.51 75.4306 12.06C75.6706 11.6 75.7906 11.08 75.7906 10.5C75.7906 9.87 75.6056 9.38 75.2356 9.03C74.8656 8.67 74.3456 8.49 73.6756 8.49C73.1556 8.49 72.6856 8.62 72.2656 8.88C71.8456 9.13 71.5156 9.485 71.2756 9.945C71.0456 10.395 70.9306 10.91 70.9306 11.49C70.9306 12.12 71.1156 12.615 71.4856 12.975C71.8556 13.325 72.3756 13.5 73.0456 13.5ZM88.6685 6.99L87.0785 15H85.2935L85.4585 14.175C84.7585 14.795 83.8885 15.105 82.8485 15.105C82.1885 15.105 81.5885 14.965 81.0485 14.685C80.5185 14.405 80.0985 14 79.7885 13.47C79.4785 12.93 79.3235 12.3 79.3235 11.58C79.3235 10.69 79.5185 9.89 79.9085 9.18C80.3085 8.46 80.8485 7.9 81.5285 7.5C82.2185 7.1 82.9885 6.9 83.8385 6.9C85.1185 6.9 86.0285 7.325 86.5685 8.175L86.7935 6.99H88.6685ZM83.3285 13.5C83.8585 13.5 84.3285 13.375 84.7385 13.125C85.1585 12.865 85.4885 12.51 85.7285 12.06C85.9685 11.6 86.0885 11.08 86.0885 10.5C86.0885 9.87 85.9035 9.38 85.5335 9.03C85.1635 8.67 84.6435 8.49 83.9735 8.49C83.4435 8.49 82.9685 8.62 82.5485 8.88C82.1385 9.13 81.8135 9.485 81.5735 9.945C81.3335 10.395 81.2135 10.91 81.2135 11.49C81.2135 12.12 81.3985 12.615 81.7685 12.975C82.1385 13.325 82.6585 13.5 83.3285 13.5ZM92.2617 15.105C91.5817 15.105 90.9317 15.025 90.3117 14.865C89.7017 14.695 89.2267 14.485 88.8867 14.235L89.6667 12.795C89.9967 13.035 90.4117 13.225 90.9117 13.365C91.4117 13.505 91.9267 13.575 92.4567 13.575C93.0567 13.575 93.5067 13.495 93.8067 13.335C94.1167 13.165 94.2717 12.925 94.2717 12.615C94.2717 12.375 94.1417 12.2 93.8817 12.09C93.6317 11.98 93.2317 11.865 92.6817 11.745C92.1117 11.635 91.6417 11.52 91.2717 11.4C90.9117 11.27 90.5967 11.065 90.3267 10.785C90.0667 10.495 89.9367 10.1 89.9367 9.6C89.9367 8.77 90.2817 8.115 90.9717 7.635C91.6717 7.145 92.5967 6.9 93.7467 6.9C94.2967 6.9 94.8317 6.965 95.3517 7.095C95.8717 7.215 96.2967 7.38 96.6267 7.59L95.9367 9.03C95.6067 8.82 95.2317 8.665 94.8117 8.565C94.4017 8.465 93.9867 8.415 93.5667 8.415C92.9767 8.415 92.5267 8.505 92.2167 8.685C91.9167 8.865 91.7667 9.1 91.7667 9.39C91.7667 9.65 91.8967 9.84 92.1567 9.96C92.4267 10.07 92.8417 10.185 93.4017 10.305C93.9617 10.415 94.4217 10.535 94.7817 10.665C95.1417 10.785 95.4517 10.985 95.7117 11.265C95.9717 11.545 96.1017 11.925 96.1017 12.405C96.1017 13.265 95.7517 13.93 95.0517 14.4C94.3517 14.87 93.4217 15.105 92.2617 15.105ZM107.301 3.87L105.081 15H103.296L103.461 14.175C102.741 14.795 101.876 15.105 100.866 15.105C100.206 15.105 99.6064 14.965 99.0664 14.685C98.5364 14.405 98.1164 14 97.8064 13.47C97.4964 12.93 97.3414 12.3 97.3414 11.58C97.3414 10.68 97.5364 9.875 97.9264 9.165C98.3164 8.455 98.8514 7.9 99.5314 7.5C100.221 7.1 100.991 6.9 101.841 6.9C102.471 6.9 103.016 7.005 103.476 7.215C103.946 7.425 104.311 7.735 104.571 8.145L105.426 3.87H107.301ZM101.346 13.5C101.866 13.5 102.336 13.375 102.756 13.125C103.176 12.865 103.501 12.51 103.731 12.06C103.971 11.6 104.091 11.08 104.091 10.5C104.091 9.87 103.906 9.38 103.536 9.03C103.166 8.67 102.646 8.49 101.976 8.49C101.456 8.49 100.986 8.62 100.566 8.88C100.146 9.13 99.8164 9.485 99.5764 9.945C99.3464 10.395 99.2314 10.91 99.2314 11.49C99.2314 12.12 99.4164 12.615 99.7864 12.975C100.156 13.325 100.676 13.5 101.346 13.5ZM116.969 6.99L115.379 15H113.594L113.759 14.175C113.059 14.795 112.189 15.105 111.149 15.105C110.489 15.105 109.889 14.965 109.349 14.685C108.819 14.405 108.399 14 108.089 13.47C107.779 12.93 107.624 12.3 107.624 11.58C107.624 10.69 107.819 9.89 108.209 9.18C108.609 8.46 109.149 7.9 109.829 7.5C110.519 7.1 111.289 6.9 112.139 6.9C113.419 6.9 114.329 7.325 114.869 8.175L115.094 6.99H116.969ZM111.629 13.5C112.159 13.5 112.629 13.375 113.039 13.125C113.459 12.865 113.789 12.51 114.029 12.06C114.269 11.6 114.389 11.08 114.389 10.5C114.389 9.87 114.204 9.38 113.834 9.03C113.464 8.67 112.944 8.49 112.274 8.49C111.744 8.49 111.269 8.62 110.849 8.88C110.439 9.13 110.114 9.485 109.874 9.945C109.634 10.395 109.514 10.91 109.514 11.49C109.514 12.12 109.699 12.615 110.069 12.975C110.439 13.325 110.959 13.5 111.629 13.5ZM120.562 15.105C119.882 15.105 119.232 15.025 118.612 14.865C118.002 14.695 117.527 14.485 117.187 14.235L117.967 12.795C118.297 13.035 118.712 13.225 119.212 13.365C119.712 13.505 120.227 13.575 120.757 13.575C121.357 13.575 121.807 13.495 122.107 13.335C122.417 13.165 122.572 12.925 122.572 12.615C122.572 12.375 122.442 12.2 122.182 12.09C121.932 11.98 121.532 11.865 120.982 11.745C120.412 11.635 119.942 11.52 119.572 11.4C119.212 11.27 118.897 11.065 118.627 10.785C118.367 10.495 118.237 10.1 118.237 9.6C118.237 8.77 118.582 8.115 119.272 7.635C119.972 7.145 120.897 6.9 122.047 6.9C122.597 6.9 123.132 6.965 123.652 7.095C124.172 7.215 124.597 7.38 124.927 7.59L124.237 9.03C123.907 8.82 123.532 8.665 123.112 8.565C122.702 8.465 122.287 8.415 121.867 8.415C121.277 8.415 120.827 8.505 120.517 8.685C120.217 8.865 120.067 9.1 120.067 9.39C120.067 9.65 120.197 9.84 120.457 9.96C120.727 10.07 121.142 10.185 121.702 10.305C122.262 10.415 122.722 10.535 123.082 10.665C123.442 10.785 123.752 10.985 124.012 11.265C124.272 11.545 124.402 11.925 124.402 12.405C124.402 13.265 124.052 13.93 123.352 14.4C122.652 14.87 121.722 15.105 120.562 15.105ZM135.602 3.87L133.382 15H131.597L131.762 14.175C131.042 14.795 130.177 15.105 129.167 15.105C128.507 15.105 127.907 14.965 127.367 14.685C126.837 14.405 126.417 14 126.107 13.47C125.797 12.93 125.642 12.3 125.642 11.58C125.642 10.68 125.837 9.875 126.227 9.165C126.617 8.455 127.152 7.9 127.832 7.5C128.522 7.1 129.292 6.9 130.142 6.9C130.772 6.9 131.317 7.005 131.777 7.215C132.247 7.425 132.612 7.735 132.872 8.145L133.727 3.87H135.602ZM129.647 13.5C130.167 13.5 130.637 13.375 131.057 13.125C131.477 12.865 131.802 12.51 132.032 12.06C132.272 11.6 132.392 11.08 132.392 10.5C132.392 9.87 132.207 9.38 131.837 9.03C131.467 8.67 130.947 8.49 130.277 8.49C129.757 8.49 129.287 8.62 128.867 8.88C128.447 9.13 128.117 9.485 127.877 9.945C127.647 10.395 127.532 10.91 127.532 11.49C127.532 12.12 127.717 12.615 128.087 12.975C128.457 13.325 128.977 13.5 129.647 13.5Z" fill="#443626"/>
</svg>
